<svg xmlns="http://www.w3.org/2000/svg" viewBox="0 0 24 24" fill="none" stroke="#000000" stroke-linecap="round" stroke-linejoin="round" id="Brand-Notion--Streamline-Tabler" height="24" width="24">
  <desc>
    Brand Notion Streamline Icon: https://streamlinehq.com
  </desc>
  <path d="M11 17.5V11h0.5l4 6h0.5v-6.5" stroke-width="2"></path>
  <path d="m19.077 20.071 -11.53 0.887a1 1 0 0 1 -0.876 -0.397L4.2 17.267a1 1 0 0 1 -0.2 -0.6V5.926a1 1 0 0 1 0.923 -0.997l11.389 -0.876a2 2 0 0 1 1.262 0.33l1.535 1.023A2 2 0 0 1 20 7.07v12.004a1 1 0 0 1 -0.923 0.997z" stroke-width="2"></path>
  <path d="M4.5 5.5 7 8" stroke-width="2"></path>
  <path d="M20 7 7 8v12.5" stroke-width="2"></path>
</svg>